# xmcd
#
# Track frame offsets:
#	150
#	21875
#	39356
#	57967
#	78656
#	96933
#	113947
#	139015
#	153169
#	172317
#	186122
#	205151
#	219097
#	236022
#	253884
#	271722
#	285875
#	298674
#	320780
#	339928
#
# Disc length: 4715
#
# Revision: 1
# Processed by: cddbd v1.5.1PL0 Copyright (c) Steve Scherf et al.
# Submitted via: EasyCDDAExtractor 4.6.0.1
# Normalized: r0:TDELIM( - )
#
DISCID=23126914
DTITLE=MTV - The Best Of Black Musik
DYEAR=2003
DGENRE=R&B
TTITLE0=Busta Rhymes and Mariah Carey - IKnow What You Want
TTITLE1=Sean Paul - Get Busy (remix)
TTITLE2=Beyoncé and Jay Z - Crazy in Love
TTITLE3=Outlandisch - Aicha (remix)
TTITLE4=Ja Rule - The Reign
TTITLE5=50 Cent - 21 Questions
TTITLE6=P Diddy Lenny Kravitz Pharrel Williams Loon - Show Me Your Soul
TTITLE7=Beyoncé - In Da Club
TTITLE8=Nas - I Can
TTITLE9=R Kelly - Ignition (remix)
TTITLE10=Eminem - Buisiness
TTITLE11=Coolio - What Is A MC (remix)
TTITLE12=Morcheeba - What Is Your Name
TTITLE13=Busta Rhymes - Break Ya Neck
TTITLE14=Mc Solaar - La La La
TTITLE15=Trpooper Da Don - Rockin Dis
TTITLE16=Mark Ronson - Ooh Wee
TTITLE17=Nelly P Diddy Murphy Lee - Shake Your Tailfeather
TTITLE18=8 Ball - Hands In The Air
TTITLE19=Fat Joe - We Ridin
EXTD=
EXTT0=
EXTT1=
EXTT2=
EXTT3=
EXTT4=
EXTT5=
EXTT6=
EXTT7=
EXTT8=
EXTT9=
EXTT10=
EXTT11=
EXTT12=
EXTT13=
EXTT14=
EXTT15=
EXTT16=
EXTT17=
EXTT18=
EXTT19=
PLAYORDER=
